<?xml version="1.0" standalone="no"?>
<!DOCTYPE svg PUBLIC "-//W3C//DTD SVG 20010904//EN"
 "http://www.w3.org/TR/2001/REC-SVG-20010904/DTD/svg10.dtd">
<svg version="1.0" xmlns="http://www.w3.org/2000/svg"
 width="1920.000000pt" height="1080.000000pt" viewBox="0 0 1920.000000 1080.000000"
 preserveAspectRatio="xMidYMid meet">

<g transform="translate(0.000000,1080.000000) scale(0.100000,-0.100000)"
fill="#000000" stroke="none">
<path d="M9485 10590 c-86 -28 -272 -137 -506 -298 -112 -76 -234 -156 -270
-176 l-66 -36 -144 0 c-79 0 -227 7 -329 15 -222 17 -459 19 -532 4 -87 -18
-173 -66 -232 -129 -72 -79 -142 -199 -300 -520 -150 -304 -173 -342 -231
-382 -22 -15 -172 -93 -334 -173 -162 -80 -333 -169 -380 -197 -153 -92 -235
-197 -260 -332 -15 -84 -13 -328 4 -541 9 -99 16 -240 16 -313 1 -131 1 -133
-31 -190 -18 -31 -111 -173 -208 -316 -96 -142 -198 -304 -227 -360 -97 -188
-97 -304 0 -492 52 -102 77 -140 286 -449 64 -93 130 -196 148 -228 33 -57 33
-60 33 -185 -1 -70 -8 -212 -17 -315 -17 -216 -20 -460 -5 -538 6 -30 23 -81
39 -114 69 -145 167 -214 580 -409 130 -61 273 -133 317 -160 72 -43 86 -56
122 -116 l41 -69 -617 -1063 c-340 -585 -623 -1076 -630 -1091 -34 -77 7 -182
87 -222 44 -22 89 -21 661 14 432 27 466 28 478 13 8 -10 117 -223 243 -476
127 -252 241 -469 254 -482 22 -22 32 -24 128 -24 95 0 105 2 124 23 18 18
401 675 1157 1979 l137 236 137 -88 c286 -184 413 -226 572 -189 66 15 227 99
372 195 l128 83 39 -67 c21 -37 305 -526 631 -1087 325 -561 603 -1035 616
-1052 l25 -33 109 0 109 0 24 33 c13 17 129 239 257 492 128 253 235 463 239
466 6 7 87 2 706 -36 361 -22 386 -22 432 2 53 27 95 97 95 158 0 59 110 -138
-1015 1797 -131 223 -237 413 -237 420 0 8 18 43 40 77 55 84 59 87 550 324
347 168 460 271 499 455 15 74 14 365 -4 567 -8 94 -15 226 -15 294 0 123 0
123 37 193 20 39 113 181 206 317 259 378 315 507 287 668 -20 123 -73 220
-311 568 -86 127 -171 258 -188 292 -29 59 -31 69 -31 178 0 64 7 204 16 313
22 274 16 546 -14 622 -61 154 -138 210 -604 446 -296 149 -374 193 -398 222
-17 20 -101 176 -187 347 -181 359 -241 462 -316 532 -103 98 -187 123 -412
123 -82 -1 -233 -7 -335 -15 -102 -8 -250 -15 -331 -15 l-145 0 -100 59 c-54
33 -173 112 -264 175 -181 126 -346 224 -442 264 -86 35 -226 41 -313 12z
m238 -374 c66 -32 131 -73 492 -317 139 -94 233 -143 315 -165 81 -22 259 -22
515 0 184 16 437 21 495 10 52 -11 108 -100 286 -459 103 -209 180 -351 209
-388 86 -108 133 -136 635 -380 221 -107 314 -170 324 -218 11 -55 6 -277 -9
-479 -21 -261 -23 -441 -6 -510 7 -30 27 -84 43 -119 29 -62 52 -97 290 -446
114 -167 158 -243 183 -315 12 -35 11 -41 -25 -116 -20 -43 -80 -143 -134
-221 -251 -371 -287 -428 -315 -486 -16 -34 -35 -87 -42 -117 -17 -69 -15
-249 6 -510 15 -201 20 -424 9 -478 -12 -59 -128 -130 -481 -296 -337 -158
-421 -215 -507 -344 -24 -37 -112 -204 -194 -372 -87 -178 -169 -331 -196
-367 -45 -60 -48 -62 -104 -69 -67 -8 -371 1 -527 17 -60 6 -173 11 -250 12
-238 3 -281 -15 -654 -272 -211 -145 -334 -220 -405 -247 -47 -17 -51 -17 -98
0 -71 25 -161 80 -445 272 -252 170 -324 210 -423 235 -65 16 -279 16 -445 0
-157 -16 -460 -25 -528 -17 l-58 8 -50 71 c-28 40 -118 208 -199 374 -82 166
-167 329 -189 362 -85 124 -165 177 -542 355 -223 106 -348 175 -409 227 l-34
29 -4 128 c-2 70 3 219 12 332 34 450 32 504 -21 638 -17 41 -107 186 -232
372 -204 305 -261 403 -261 450 0 58 57 153 352 587 168 246 184 290 181 513
-1 85 -8 240 -17 345 -17 197 -20 382 -9 448 5 34 15 45 77 89 39 28 154 91
256 140 447 216 493 241 574 317 63 59 118 153 275 473 168 342 220 422 279
432 67 11 304 6 487 -10 252 -21 434 -22 512 -1 97 26 166 65 478 273 274 183
380 243 433 244 12 0 55 -16 95 -34z m-2484 -7132 c108 -201 179 -288 281
-339 120 -61 273 -68 732 -34 156 11 304 19 329 16 35 -3 139 -42 139 -53 0
-1 -53 -93 -119 -205 -65 -112 -306 -528 -536 -924 -229 -396 -425 -733 -435
-749 l-18 -29 -191 380 c-197 395 -222 433 -289 450 -26 6 -779 -32 -851 -43
-29 -5 -33 -3 -27 13 6 16 929 1612 933 1613 0 0 24 -43 52 -96z m5276 -679
c246 -424 458 -789 471 -813 l25 -42 -53 5 c-81 9 -721 45 -787 45 -48 0 -65
-5 -98 -29 -36 -26 -62 -72 -238 -415 l-197 -387 -554 953 -554 953 43 22 c65
33 140 36 432 14 547 -42 688 -24 827 107 51 48 130 167 193 291 20 40 38 71
40 70 2 -2 204 -350 450 -774z"/>
<path d="M9294 9085 c-421 -53 -849 -213 -1199 -448 -209 -140 -492 -411 -648
-620 -292 -390 -473 -847 -527 -1332 -16 -147 -14 -459 5 -610 52 -420 185
-784 420 -1145 290 -446 739 -821 1213 -1015 244 -99 384 -140 632 -183 142
-24 178 -26 435 -27 286 0 337 5 540 46 713 147 1333 564 1731 1165 238 359
382 752 435 1189 15 129 15 450 0 585 -90 782 -506 1476 -1159 1932 -329 231
-719 384 -1149 454 -138 23 -579 28 -729 9z m701 -369 c561 -91 1058 -367
1422 -790 615 -715 744 -1723 326 -2564 -113 -227 -266 -438 -455 -624 -354
-350 -797 -574 -1293 -653 -135 -22 -492 -31 -626 -16 -757 86 -1406 508
-1796 1168 -263 446 -366 1022 -277 1548 144 855 748 1561 1569 1834 153 51
347 95 484 111 119 13 530 4 646 -14z"/>
<path d="M8243 7335 c-40 -18 -88 -83 -97 -129 -9 -50 295 -1605 326 -1666 15
-29 37 -52 63 -67 l40 -23 1048 0 c1024 0 1049 0 1087 20 82 42 63 -32 281
1082 135 692 132 667 73 738 -45 53 -133 75 -199 50 -14 -6 -176 -113 -358
-238 -183 -126 -337 -231 -343 -235 -7 -4 -99 90 -224 228 -142 156 -222 237
-242 244 -46 16 -119 13 -155 -6 -18 -10 -125 -120 -238 -246 l-206 -227 -182
124 c-562 385 -521 359 -584 363 -36 1 -71 -3 -90 -12z m1585 -651 c185 -205
209 -225 278 -239 52 -10 100 15 332 174 123 84 225 151 227 149 2 -2 -128
-675 -176 -905 l-10 -53 -855 0 c-470 0 -854 2 -854 4 0 2 -41 212 -90 467
-50 255 -89 470 -88 476 2 8 98 -53 223 -139 240 -165 286 -187 354 -168 54
14 75 34 276 259 94 104 175 189 181 188 6 -1 97 -97 202 -213z"/>
</g>
</svg>
