<?xml version="1.0" standalone="no"?>
<!DOCTYPE svg PUBLIC "-//W3C//DTD SVG 20010904//EN"
 "http://www.w3.org/TR/2001/REC-SVG-20010904/DTD/svg10.dtd">
<svg version="1.0" xmlns="http://www.w3.org/2000/svg"
 width="1920.000000pt" height="1080.000000pt" viewBox="0 0 1920.000000 1080.000000"
 preserveAspectRatio="xMidYMid meet">

<g transform="translate(0.000000,1080.000000) scale(0.100000,-0.100000)"
fill="#000000" stroke="none">
<path d="M5324 10626 c-420 -111 -726 -439 -799 -855 -70 -399 93 -806 420
-1049 185 -137 469 -223 690 -207 507 35 914 400 1001 896 22 128 14 308 -20
441 -92 361 -378 655 -741 764 -81 24 -109 27 -275 31 -170 3 -192 1 -276 -21z
m441 -351 c230 -62 424 -249 497 -479 27 -86 35 -269 15 -363 -32 -150 -125
-300 -245 -397 -75 -60 -204 -125 -292 -147 -78 -19 -259 -17 -340 5 -444 119
-663 617 -450 1024 97 187 297 335 502 372 72 12 240 5 313 -15z"/>
<path d="M9220 10632 c-78 -38 -107 -84 -528 -834 -227 -404 -418 -753 -424
-774 -25 -92 20 -221 96 -276 83 -60 62 -59 992 -56 l849 3 51 27 c100 53 148
139 142 252 -3 70 -6 75 -125 286 -66 118 -253 451 -416 740 -162 289 -311
544 -331 567 -52 60 -106 83 -197 83 -49 0 -86 -6 -109 -18z m449 -1027 l309
-550 -640 -3 c-353 -1 -643 0 -646 2 -4 4 448 816 601 1080 39 68 40 69 53 45
7 -13 152 -271 323 -574z"/>
<path d="M12213 10620 c-73 -37 -135 -101 -171 -178 l-27 -57 -3 -769 c-3
-849 -3 -840 60 -939 17 -27 55 -67 84 -89 100 -75 63 -72 877 -76 440 -2 755
1 798 7 136 19 236 90 292 209 l32 67 0 785 c0 723 -1 789 -18 835 -34 98
-136 200 -225 225 -24 6 -323 10 -838 10 l-801 0 -60 -30z m1587 -1035 l0
-715 -715 0 -715 0 0 715 0 715 715 0 715 0 0 -715z"/>
<path d="M9015 8314 c-552 -77 -1071 -359 -1438 -784 -716 -828 -759 -2023
-104 -2908 109 -147 351 -384 497 -488 334 -237 698 -380 1078 -425 l102 -12
0 -182 0 -182 -61 -6 c-118 -10 -232 -95 -286 -213 -24 -54 -26 -70 -104
-1317 -44 -694 -78 -1298 -76 -1342 2 -58 10 -94 26 -128 33 -69 101 -139 168
-172 l58 -30 455 0 c445 0 456 0 502 22 59 27 132 94 166 152 56 95 57 42 -29
1427 -55 901 -82 1288 -94 1334 -8 36 -31 89 -50 117 -57 86 -178 153 -277
153 l-38 0 0 183 0 183 108 12 c116 13 337 64 466 108 324 109 651 316 903
572 307 310 527 720 616 1147 35 166 47 287 47 477 0 271 -35 485 -119 739
-141 420 -394 785 -741 1064 -322 260 -651 409 -1085 490 -129 25 -539 30
-690 9z m636 -364 c637 -109 1172 -511 1449 -1085 219 -455 255 -983 99 -1459
-190 -581 -642 -1043 -1218 -1247 -351 -124 -759 -144 -1116 -54 -659 165
-1183 647 -1395 1281 -73 220 -100 392 -100 643 0 380 108 738 320 1061 194
295 489 552 797 696 201 95 462 166 673 184 137 12 360 3 491 -20z m-117
-5002 c3 -13 37 -547 76 -1188 38 -641 73 -1191 76 -1222 l6 -58 -356 0 -356
0 0 43 c0 23 34 580 75 1237 41 657 75 1198 75 1203 0 4 90 7 200 7 199 0 200
0 204 -22z"/>
<path d="M8335 7246 c-98 -31 -175 -98 -221 -191 l-29 -60 0 -980 0 -980 33
-67 c40 -81 110 -148 190 -180 l57 -23 970 0 970 0 65 31 c78 37 141 99 178
174 l27 55 0 985 0 985 -26 56 c-36 76 -86 129 -161 170 l-63 34 -975 2 c-767
1 -984 -1 -1015 -11z m1895 -1236 l0 -890 -895 0 -895 0 0 890 0 890 895 0
895 0 0 -890z"/>
<path d="M12926 7609 c-338 -49 -647 -275 -800 -584 -46 -94 -76 -179 -98
-280 -18 -88 -16 -303 5 -403 71 -337 282 -606 592 -758 165 -80 252 -99 460
-98 153 0 180 3 270 28 127 34 259 98 361 174 457 340 572 944 272 1433 -59
96 -210 253 -301 313 -228 149 -503 213 -761 175z m330 -369 c363 -92 602
-462 530 -820 -20 -98 -79 -231 -137 -307 -88 -117 -262 -228 -405 -258 -245
-52 -488 18 -659 190 -138 138 -203 282 -212 475 -6 120 15 227 66 335 87 185
267 332 471 385 102 26 243 26 346 0z"/>
<path d="M5495 7248 c-16 -6 -49 -24 -72 -40 -46 -31 -55 -45 -228 -353 -59
-104 -229 -406 -378 -670 -148 -264 -278 -498 -288 -520 -57 -124 10 -285 141
-344 44 -20 62 -21 910 -21 l865 0 50 24 c52 24 103 74 131 128 22 43 29 136
14 184 -21 62 -840 1513 -874 1547 -67 66 -186 95 -271 65z m408 -1012 c174
-311 317 -567 317 -570 0 -3 -288 -6 -640 -6 -352 0 -640 3 -640 7 0 11 633
1133 639 1133 3 0 149 -254 324 -564z"/>
<path d="M11855 4672 c-36 -70 -65 -129 -65 -132 0 -3 66 -45 147 -93 120 -72
149 -86 159 -75 21 21 147 269 140 275 -3 4 -76 39 -161 79 l-155 72 -65 -126z"/>
<path d="M4820 4400 c-88 -12 -154 -46 -214 -111 -102 -110 -96 -52 -96 -948
0 -858 -2 -832 63 -928 18 -26 58 -65 88 -85 104 -71 83 -69 944 -66 l770 3
65 31 c79 38 140 97 177 172 l28 57 0 805 0 805 -33 67 c-40 81 -110 148 -190
180 l-57 23 -745 1 c-410 1 -770 -1 -800 -6z m1470 -1065 l0 -715 -715 0 -715
0 0 708 c0 390 3 712 7 715 3 4 325 7 715 7 l708 0 0 -715z"/>
<path d="M13004 4212 c-103 -37 -96 -26 -506 -752 -467 -829 -475 -844 -483
-902 -11 -76 17 -153 78 -214 88 -88 38 -84 992 -84 930 0 895 -3 978 70 96
85 118 200 60 321 -65 136 -823 1465 -854 1497 -65 70 -176 96 -265 64z m405
-1017 l321 -570 -642 -3 c-353 -1 -643 -1 -645 1 -2 2 142 261 318 576 177
314 323 570 325 569 1 -2 147 -260 323 -573z"/>
<path d="M11335 3976 c-196 -199 -386 -339 -642 -472 -70 -37 -130 -69 -132
-71 -5 -4 140 -323 147 -323 13 0 282 146 373 202 206 128 453 334 597 496
l63 72 -33 28 c-18 16 -78 68 -132 116 -54 47 -102 85 -105 85 -3 -1 -64 -61
-136 -133z"/>
</g>
</svg>
