<?xml version="1.0" standalone="no"?>
<!DOCTYPE svg PUBLIC "-//W3C//DTD SVG 20010904//EN"
 "http://www.w3.org/TR/2001/REC-SVG-20010904/DTD/svg10.dtd">
<svg version="1.0" xmlns="http://www.w3.org/2000/svg"
 width="1920.000000pt" height="1080.000000pt" viewBox="0 0 1920.000000 1080.000000"
 preserveAspectRatio="xMidYMid meet">

<g transform="translate(0.000000,1080.000000) scale(0.100000,-0.100000)"
fill="#000000" stroke="none">
<path d="M7490 10681 c-240 -65 -423 -244 -500 -486 l-25 -80 -3 -2160 c-3
-2063 0 -2275 24 -2340 5 -13 -72 -15 -624 -15 l-629 0 -6 48 c-13 106 -92
218 -192 270 l-50 27 -351 3 c-339 3 -353 2 -410 -19 -44 -16 -74 -37 -120
-83 -109 -110 -99 41 -99 -1571 l0 -1400 23 -49 c31 -68 85 -131 137 -162 84
-49 126 -54 450 -54 307 0 359 5 430 43 89 46 166 154 181 254 l7 46 71 -7
c108 -10 237 -34 389 -72 152 -38 495 -148 521 -167 16 -12 16 -16 -4 -62
-110 -258 -33 -561 186 -731 111 -86 223 -124 368 -124 l83 0 21 -86 c43 -173
161 -321 315 -394 111 -53 193 -73 284 -68 72 3 74 3 79 -22 31 -156 78 -246
183 -350 118 -116 247 -170 418 -173 l86 -2 13 -65 c45 -223 243 -424 462
-469 77 -16 215 -13 285 5 156 40 255 113 395 290 l105 134 66 -58 c36 -31
117 -103 179 -159 181 -164 280 -212 462 -220 78 -4 122 -1 170 11 252 63 443
281 468 534 l7 67 64 7 c192 21 342 112 449 273 59 88 91 175 99 271 l6 72 66
7 c295 30 522 257 557 558 5 47 10 57 26 57 54 0 182 36 257 72 121 58 213
152 274 279 25 52 50 118 56 147 16 75 14 198 -4 265 -8 32 -15 62 -15 67 0
26 457 110 601 110 l47 0 6 -44 c10 -64 60 -158 108 -201 22 -21 66 -49 97
-64 l56 -26 324 -3 c361 -3 393 1 487 63 64 42 128 135 143 208 8 36 11 468 9
1427 l-3 1375 -33 67 c-40 82 -111 149 -189 178 -54 20 -71 21 -407 18 l-351
-3 -50 -27 c-103 -54 -179 -160 -192 -266 l-6 -52 -629 0 c-595 0 -629 1 -624
18 24 78 26 272 26 2257 0 1424 -3 2138 -11 2195 -35 284 -214 510 -473 597
l-81 28 -2240 2 c-2117 2 -2244 1 -2305 -16z m1060 -1151 l5 -825 32 -66 c81
-164 283 -255 455 -205 35 10 182 92 398 221 l342 205 340 -205 c217 -131 361
-211 396 -221 176 -51 379 44 461 216 l26 55 5 825 5 825 415 3 c245 2 447 -1
493 -8 146 -19 248 -97 296 -226 l21 -55 -2 -2197 c-3 -2160 -3 -2198 -23
-2235 l-19 -38 -227 3 -228 3 -643 323 c-727 365 -718 362 -941 369 -184 7
-308 -18 -450 -89 l-59 -29 -83 36 c-77 33 -188 65 -277 80 l-37 6 -3 222 c-3
216 -4 224 -29 278 -37 79 -90 133 -167 171 l-67 33 -525 0 -525 0 -56 -26
c-76 -36 -129 -86 -170 -161 l-34 -63 0 -360 0 -360 28 -57 c31 -64 104 -135
169 -166 l43 -20 -185 -92 -185 -93 -90 -5 -91 -5 -19 44 c-20 43 -20 80 -20
2254 l0 2210 28 53 c32 61 95 125 149 153 87 44 128 48 598 46 l445 -2 5 -825z
m2110 47 c0 -799 0 -807 -36 -807 -7 0 -184 103 -395 230 -211 126 -398 233
-416 236 -18 3 -48 3 -65 0 -18 -3 -205 -109 -416 -236 -211 -126 -389 -230
-396 -230 -36 0 -36 8 -36 807 l0 783 880 0 880 0 0 -783z m-1762 -3113 l-3
-196 -75 -28 c-41 -15 -112 -46 -157 -68 l-83 -42 -280 0 -280 0 0 265 0 265
440 0 440 0 -2 -196z m415 -532 c28 -7 18 -19 -480 -544 -356 -376 -519 -555
-546 -599 -82 -138 -108 -314 -69 -468 33 -128 75 -205 162 -292 124 -124 271
-183 450 -182 114 1 223 32 317 90 38 23 241 206 524 472 254 239 467 434 474
434 22 0 1358 -1007 1925 -1452 431 -338 699 -558 743 -611 37 -43 50 -94 45
-164 -7 -78 -34 -132 -94 -185 -53 -47 -94 -61 -177 -61 -68 0 -112 16 -170
63 -61 49 -79 57 -140 57 -102 0 -174 -80 -165 -185 3 -29 12 -64 21 -77 10
-12 32 -44 51 -70 112 -155 27 -369 -162 -409 -74 -15 -157 7 -227 61 -85 66
-137 75 -212 39 -103 -50 -129 -179 -53 -268 17 -20 42 -58 55 -86 87 -177
-60 -389 -256 -372 -62 5 -105 24 -164 73 -73 59 -129 68 -202 33 -109 -53
-130 -180 -47 -280 52 -62 66 -97 72 -169 6 -87 -22 -154 -88 -213 -74 -66
-154 -82 -257 -52 -41 12 -78 39 -200 148 -81 72 -170 151 -196 174 l-48 41
23 74 c33 106 32 262 -4 371 -48 145 -158 277 -288 346 -59 32 -191 71 -239
71 -26 0 -26 1 -27 83 -3 170 -61 306 -184 428 -101 101 -195 146 -361 173
l-36 6 5 49 c5 60 -21 195 -53 266 -70 160 -213 285 -388 340 -93 30 -229 34
-322 10 -36 -10 -61 -12 -63 -6 -14 43 -88 175 -119 213 -152 188 -429 264
-667 184 -149 -50 -206 -98 -380 -316 -76 -96 -144 -174 -150 -174 -6 1 -84
29 -173 63 -301 113 -584 189 -828 222 -82 11 -165 22 -182 25 l-33 5 0 969 0
970 913 0 c776 0 922 2 972 15 37 9 308 139 700 336 480 240 656 324 705 335
67 14 238 12 293 -4z m997 -10 c30 -10 336 -160 679 -332 475 -237 640 -315
690 -326 54 -11 256 -14 1109 -14 l1042 0 0 -969 0 -969 -77 -6 c-286 -25
-559 -78 -756 -145 l-57 -20 -73 63 c-357 309 -2447 1903 -2577 1965 -46 22
-69 26 -140 26 -149 0 -144 4 -690 -505 -535 -498 -532 -496 -654 -488 -86 6
-140 31 -190 90 -70 81 -84 210 -35 302 14 26 169 198 369 408 817 859 807
849 931 899 134 53 316 62 429 21z m-4930 -1642 l0 -1320 -265 0 -265 0 0
1320 0 1320 265 0 265 0 0 -1320z m9330 0 l0 -1320 -265 0 -265 0 0 1320 0
1320 265 0 265 0 0 -1320z m-6918 -1143 c107 -55 162 -169 138 -285 -14 -64
-21 -74 -248 -362 -223 -283 -241 -303 -306 -331 -75 -32 -176 -24 -244 20
-115 73 -155 214 -94 332 25 49 362 488 436 567 89 96 205 118 318 59z m812
-411 c113 -66 162 -220 107 -337 -21 -45 -476 -626 -556 -710 -62 -66 -104
-84 -195 -84 -83 0 -121 15 -178 69 -56 52 -76 101 -77 186 0 95 16 129 133
275 49 61 168 210 264 331 97 122 192 234 212 249 80 61 206 70 290 21z m570
-680 c125 -61 179 -223 116 -347 -21 -41 -380 -500 -444 -568 -55 -58 -114
-84 -194 -83 -202 2 -327 217 -226 389 14 25 122 166 239 312 219 275 244 299
331 320 58 15 117 7 178 -23z m571 -677 c136 -64 194 -239 119 -366 -14 -25
-97 -134 -184 -243 -191 -239 -212 -255 -335 -255 -69 0 -86 4 -126 27 -95 56
-148 157 -136 259 9 70 30 104 192 309 160 203 216 261 267 277 58 19 153 15
203 -8z"/>
</g>
</svg>
