<?xml version="1.0" standalone="no"?>
<!DOCTYPE svg PUBLIC "-//W3C//DTD SVG 20010904//EN"
 "http://www.w3.org/TR/2001/REC-SVG-20010904/DTD/svg10.dtd">
<svg version="1.0" xmlns="http://www.w3.org/2000/svg"
 width="1920.000000pt" height="1080.000000pt" viewBox="0 0 1920.000000 1080.000000"
 preserveAspectRatio="xMidYMid meet">

<g transform="translate(0.000000,1080.000000) scale(0.100000,-0.100000)"
fill="#000000" stroke="none">
<path d="M3405 10663 c-147 -20 -267 -110 -332 -249 l-28 -59 -3 -3884 c-2
-4273 -7 -3929 58 -4032 64 -99 166 -168 281 -189 36 -7 2082 -9 6014 -8
l5960 3 52 21 c121 50 217 154 253 274 20 64 20 105 18 3935 l-3 3870 -36 75
c-64 132 -178 217 -319 240 -63 9 -11844 13 -11915 3z m11855 -4213 l0 -3790
-5905 0 -5905 0 0 3790 0 3790 5905 0 5905 0 0 -3790z"/>
<path d="M9120 8789 c-120 -13 -325 -55 -457 -95 -607 -184 -1118 -621 -1407
-1204 -456 -921 -258 -2029 490 -2740 426 -405 1013 -640 1597 -640 549 0
1072 184 1492 525 185 150 386 378 513 581 376 603 455 1356 214 2029 -271
756 -920 1326 -1705 1500 -223 49 -514 66 -737 44z m-448 -1079 c37 -11 1501
-1041 1566 -1104 69 -64 90 -153 57 -233 -20 -46 -37 -66 -100 -113 -192 -142
-1468 -1037 -1500 -1051 -121 -55 -264 24 -286 158 -12 71 -11 2110 1 2171 24
131 139 206 262 172z"/>
<path d="M9265 1390 c-208 -29 -402 -174 -485 -364 l-21 -46 -2777 -2 c-2140
-2 -2783 -6 -2804 -15 -47 -21 -106 -83 -124 -129 -43 -112 32 -247 153 -275
21 -5 1230 -9 2793 -9 l2755 0 39 -78 c57 -111 165 -217 277 -270 105 -50 171
-65 279 -65 108 0 174 15 277 64 127 61 241 178 297 306 l19 43 2776 2 2776 3
40 22 c76 40 116 106 116 186 0 88 -38 149 -121 193 -34 18 -124 19 -2810 22
l-2775 2 -40 78 c-119 229 -384 367 -640 332z"/>
</g>
</svg>
