<?xml version="1.0" standalone="no"?>
<!DOCTYPE svg PUBLIC "-//W3C//DTD SVG 20010904//EN"
 "http://www.w3.org/TR/2001/REC-SVG-20010904/DTD/svg10.dtd">
<svg version="1.0" xmlns="http://www.w3.org/2000/svg"
 width="1920.000000pt" height="1080.000000pt" viewBox="0 0 1920.000000 1080.000000"
 preserveAspectRatio="xMidYMid meet">

<g transform="translate(0.000000,1080.000000) scale(0.100000,-0.100000)"
fill="#000000" stroke="none">
<path d="M9362 10773 c-57 -20 -115 -77 -136 -133 -9 -25 -44 -200 -79 -389
-44 -244 -67 -346 -77 -352 -8 -4 -64 -28 -125 -52 -60 -24 -126 -52 -146 -60
l-36 -16 -279 201 c-153 111 -299 213 -324 227 -59 34 -146 35 -206 4 -23 -12
-165 -144 -316 -292 -206 -203 -280 -282 -294 -314 -23 -57 -22 -143 4 -193
11 -21 110 -169 221 -328 l200 -289 -28 -56 c-15 -31 -45 -101 -66 -156 -22
-55 -40 -101 -40 -102 -1 -2 -140 -25 -311 -53 -430 -69 -428 -69 -478 -100
-26 -17 -56 -48 -73 -77 l-28 -48 -3 -400 c-3 -423 -1 -452 43 -510 47 -63 97
-79 430 -139 171 -31 333 -61 361 -67 l52 -10 27 -77 c16 -42 45 -113 65 -157
l37 -81 -210 -289 c-115 -160 -218 -308 -228 -330 -24 -52 -24 -138 0 -190 23
-50 526 -565 587 -601 61 -36 138 -42 196 -16 25 11 175 109 334 219 159 110
294 202 300 206 6 3 40 -8 75 -24 35 -17 104 -47 154 -66 49 -18 90 -35 92
-37 1 -1 30 -164 63 -362 34 -197 69 -377 79 -399 23 -51 89 -111 138 -124 22
-6 208 -11 433 -13 l395 -3 44 23 c48 26 85 62 107 104 8 15 41 186 74 380 33
194 62 362 65 373 3 14 21 26 57 39 29 10 99 38 155 63 l103 45 295 -211 c163
-116 308 -217 323 -225 49 -25 107 -29 167 -11 53 15 72 31 333 286 302 293
332 332 332 420 0 27 -7 66 -15 87 -9 21 -111 172 -229 336 l-213 299 47 106
c26 58 56 129 67 156 l19 50 335 57 c184 31 357 61 385 68 61 13 125 63 157
124 21 40 22 50 25 433 2 252 -1 406 -7 431 -16 58 -63 116 -114 141 -30 15
-158 41 -408 84 l-363 62 -37 95 c-20 52 -48 122 -63 154 -15 33 -24 66 -22
73 3 7 94 137 203 290 109 153 208 298 220 322 31 60 31 143 1 200 -13 23
-140 162 -284 309 -291 298 -316 317 -419 316 -39 0 -72 -6 -95 -18 -19 -11
-164 -111 -321 -222 -158 -112 -292 -204 -298 -204 -6 0 -42 15 -79 33 -37 19
-101 47 -142 62 -41 16 -78 31 -82 34 -3 3 -31 161 -62 351 -31 190 -61 362
-67 383 -16 59 -92 132 -158 151 -79 23 -774 22 -839 -1z m583 -485 c3 -18 28
-169 54 -335 53 -326 65 -366 130 -412 16 -12 97 -43 180 -70 102 -34 200 -75
307 -130 139 -72 163 -81 211 -81 35 0 68 7 96 21 23 12 159 105 302 207 l260
185 102 -109 c57 -60 101 -115 98 -122 -3 -7 -89 -131 -192 -274 -103 -144
-192 -278 -199 -297 -28 -78 -19 -117 60 -277 71 -142 111 -246 155 -399 24
-83 64 -135 125 -165 29 -14 150 -39 363 -75 175 -30 321 -55 326 -55 4 0 7
-70 7 -155 0 -85 -2 -155 -6 -155 -3 0 -154 -25 -337 -56 -366 -61 -392 -69
-446 -145 -16 -22 -35 -63 -41 -92 -28 -118 -97 -283 -185 -445 -39 -73 -45
-92 -45 -143 0 -33 6 -74 13 -92 8 -18 100 -153 206 -302 l191 -270 -107 -107
c-59 -59 -111 -104 -116 -101 -6 3 -126 88 -268 189 -141 100 -272 191 -291
200 -21 12 -55 18 -93 18 -55 1 -73 -6 -215 -76 -147 -73 -212 -99 -378 -149
-84 -25 -149 -76 -175 -136 -9 -21 -40 -175 -67 -343 -28 -168 -54 -315 -57
-328 -5 -22 -6 -22 -156 -20 l-151 3 -56 335 c-31 184 -64 349 -73 366 -35 67
-85 98 -242 149 -96 31 -203 75 -304 126 -141 72 -161 79 -214 79 -32 0 -74
-7 -93 -15 -28 -12 -310 -202 -532 -359 l-43 -30 -104 104 c-58 58 -105 109
-105 113 0 5 86 128 190 272 105 145 197 279 205 299 8 19 15 59 15 88 0 47
-10 73 -75 203 -52 102 -92 199 -127 309 -48 151 -54 164 -97 206 -26 26 -63
51 -86 57 -36 11 -637 123 -659 123 -7 0 0 299 7 306 1 2 152 27 336 58 436
71 421 62 504 317 43 132 97 253 177 399 36 67 41 152 11 215 -11 22 -101 157
-200 300 l-180 260 108 108 108 108 275 -199 c292 -211 329 -230 410 -217 21
4 102 39 181 79 82 42 193 88 262 110 186 59 198 64 236 96 20 16 45 49 56 72
11 24 45 183 79 366 l58 322 153 0 152 0 6 -32z"/>
<path d="M9665 8908 c-193 -12 -384 -79 -554 -192 -495 -330 -661 -969 -391
-1506 73 -145 203 -298 345 -405 92 -70 284 -161 400 -191 138 -35 341 -44
483 -20 365 61 664 276 845 606 44 81 89 209 113 320 21 100 24 319 5 420 -44
240 -151 450 -315 619 -247 254 -565 374 -931 349z m233 -473 c118 -24 248
-92 338 -177 153 -146 223 -305 224 -514 0 -187 -69 -354 -205 -489 -93 -93
-160 -135 -282 -178 -80 -28 -100 -31 -213 -31 -95 0 -140 4 -185 18 -315 98
-515 361 -517 681 -1 273 147 508 397 630 145 72 287 91 443 60z"/>
<path d="M7000 4709 c-268 -27 -459 -78 -827 -224 -422 -167 -704 -291 -1523
-665 -175 -80 -221 -123 -242 -223 -10 -48 -9 -64 5 -111 33 -104 140 -176
246 -163 25 3 100 31 166 62 611 288 1525 683 1809 781 273 94 728 118 1121
59 248 -37 465 -128 620 -258 33 -28 148 -139 255 -247 221 -223 274 -262 452
-334 484 -193 907 -269 1658 -295 213 -8 281 -14 344 -30 150 -39 243 -99 289
-185 18 -34 22 -57 22 -141 0 -84 -4 -107 -22 -141 -54 -101 -166 -159 -368
-189 -140 -21 -1404 -21 -1635 0 -283 25 -614 82 -980 167 -232 54 -264 58
-323 41 -101 -30 -175 -137 -164 -239 13 -123 71 -179 231 -223 285 -78 732
-163 1066 -203 188 -22 224 -23 975 -23 833 0 868 2 1054 51 173 45 236 81
911 524 1568 1028 1617 1060 1742 1120 228 110 368 150 523 150 125 0 176 -26
236 -119 19 -29 29 -58 29 -82 0 -87 -133 -259 -303 -392 -73 -57 -301 -210
-719 -483 -178 -116 -399 -260 -793 -518 -341 -223 -463 -301 -920 -596 -758
-488 -1340 -847 -1520 -937 -311 -156 -576 -159 -960 -10 -126 49 -558 263
-1637 813 -284 145 -559 282 -612 304 -185 79 -366 111 -511 91 -181 -26 -292
-78 -650 -306 -450 -288 -456 -293 -487 -354 -48 -93 -34 -194 37 -267 67 -70
183 -91 266 -49 14 8 171 107 350 221 387 247 460 285 564 292 140 9 91 31
1378 -625 1074 -547 1197 -601 1520 -665 160 -31 419 -31 564 0 210 45 388
124 658 289 99 60 212 128 251 151 79 46 626 389 884 555 1201 772 2521 1641
2645 1741 187 151 308 292 380 441 86 178 96 340 30 528 -53 153 -173 285
-330 363 -135 66 -194 79 -365 79 -155 -1 -207 -9 -365 -57 l-100 -30 -76 75
c-162 159 -385 249 -655 263 -138 8 -248 -5 -366 -42 l-77 -25 -83 66 c-131
103 -296 181 -463 217 -101 21 -361 16 -485 -11 -120 -25 -251 -68 -354 -116
-68 -31 -382 -224 -1159 -710 l-349 -218 -70 13 c-112 20 -337 86 -484 141
l-135 52 -142 150 c-177 187 -281 279 -422 373 -249 165 -541 271 -885 320
-127 18 -584 27 -720 13z m5151 -473 c37 -8 90 -25 119 -37 42 -18 49 -24 38
-35 -7 -7 -249 -158 -537 -337 -494 -306 -525 -324 -555 -316 -88 26 -221 41
-398 46 -109 3 -198 9 -198 12 0 6 125 84 632 397 290 179 283 176 394 215
184 65 365 84 505 55z m1157 -231 c34 -8 85 -27 114 -41 42 -21 48 -28 37 -39
-8 -7 -216 -145 -464 -307 -247 -162 -605 -397 -795 -521 l-344 -225 -23 79
c-26 90 -60 163 -108 230 l-33 47 531 330 c293 181 555 344 582 361 28 17 95
47 150 66 87 30 112 35 195 35 52 0 123 -7 158 -15z"/>
</g>
</svg>
